<svg viewBox="0 0 16 16" xmlns="http://www.w3.org/2000/svg">
    <g fill="#434343" fill-rule="evenodd">
        <path d="m5.811 11.799 5.852-5.852c1.162.601 2.544.489 3.432-.398.684-.685.915-1.666.709-2.613l-1.509 1.506-1.344.262-1.626-1.609.28-1.385 1.495-1.475c-.947-.207-1.93.022-2.613.706-.889.888-.999 2.27-.398 3.433l-5.852 5.852c-1.163-.6-2.545-.488-3.433.398-.684.686-.915 1.666-.708 2.613l1.508-1.505 1.343-.263 1.628 1.609-.281 1.385-1.495 1.476c.946.206 1.929-.022 2.613-.707.887-.888.998-2.27.399-3.433z"/>
        <path d="m14.107 12.334-1.83-.598-2.336-2.336-.58.58 2.336 2.334.637 1.872 3.067 1.833.579-.579z"/>
        <path d="m7.277 5.107-4.799-4.817c-.403-.404-1.111-.354-1.578.118l-.533.532c-.467.472-.52 1.179-.115 1.585l4.797 4.817z"/>
    </g>
</svg>